<svg id="visual" viewBox="0 0 900 600" width="" height="600" xmlns="http://www.w3.org/2000/svg" xmlns:xlink="http://www.w3.org/1999/xlink" version="1.1"><path d="M0 433L37.5 424.8C75 416.7 150 400.3 225 396.5C300 392.7 375 401.3 450 404.7C525 408 600 406 675 397C750 388 825 372 862.5 364L900 356L900 601L862.5 601C825 601 750 601 675 601C600 601 525 601 450 601C375 601 300 601 225 601C150 601 75 601 37.5 601L0 601Z" fill="#6a9c89"></path><path d="M0 424L37.5 429.7C75 435.3 150 446.7 225 444C300 441.3 375 424.7 450 426.2C525 427.7 600 447.3 675 451C750 454.7 825 442.3 862.5 436.2L900 430L900 601L862.5 601C825 601 750 601 675 601C600 601 525 601 450 601C375 601 300 601 225 601C150 601 75 601 37.5 601L0 601Z" fill="#548475"></path><path d="M0 455L37.5 462.2C75 469.3 150 483.7 225 487.5C300 491.3 375 484.7 450 479.7C525 474.7 600 471.3 675 475C750 478.7 825 489.3 862.5 494.7L900 500L900 601L862.5 601C825 601 750 601 675 601C600 601 525 601 450 601C375 601 300 601 225 601C150 601 75 601 37.5 601L0 601Z" fill="#3f6d62"></path><path d="M0 501L37.5 506.8C75 512.7 150 524.3 225 524.5C300 524.7 375 513.3 450 506.5C525 499.7 600 497.3 675 501.5C750 505.7 825 516.3 862.5 521.7L900 527L900 601L862.5 601C825 601 750 601 675 601C600 601 525 601 450 601C375 601 300 601 225 601C150 601 75 601 37.5 601L0 601Z" fill="#2a574f"></path><path d="M0 574L37.5 568.8C75 563.7 150 553.3 225 550C300 546.7 375 550.3 450 554.5C525 558.7 600 563.3 675 562.7C750 562 825 556 862.5 553L900 550L900 601L862.5 601C825 601 750 601 675 601C600 601 525 601 450 601C375 601 300 601 225 601C150 601 75 601 37.5 601L0 601Z" fill="#16423c"></path></svg>