<svg id="visual" viewBox="0 0 1920 1080" width="1920" height="1080" xmlns="http://www.w3.org/2000/svg" xmlns:xlink="http://www.w3.org/1999/xlink" version="1.1"><path d="M0 752L80 756C160 760 320 768 480 771.3C640 774.7 800 773.3 960 774.8C1120 776.3 1280 780.7 1440 784.2C1600 787.7 1760 790.3 1840 791.7L1920 793L1920 1081L1840 1081C1760 1081 1600 1081 1440 1081C1280 1081 1120 1081 960 1081C800 1081 640 1081 480 1081C320 1081 160 1081 80 1081L0 1081Z" fill="#6a9c89"></path><path d="M0 799L80 806.3C160 813.7 320 828.3 480 837.5C640 846.7 800 850.3 960 837.2C1120 824 1280 794 1440 773C1600 752 1760 740 1840 734L1920 728L1920 1081L1840 1081C1760 1081 1600 1081 1440 1081C1280 1081 1120 1081 960 1081C800 1081 640 1081 480 1081C320 1081 160 1081 80 1081L0 1081Z" fill="#548475"></path><path d="M0 789L80 792.2C160 795.3 320 801.7 480 805.3C640 809 800 810 960 815C1120 820 1280 829 1440 830.3C1600 831.7 1760 825.3 1840 822.2L1920 819L1920 1081L1840 1081C1760 1081 1600 1081 1440 1081C1280 1081 1120 1081 960 1081C800 1081 640 1081 480 1081C320 1081 160 1081 80 1081L0 1081Z" fill="#3f6d62"></path><path d="M0 953L80 942.3C160 931.7 320 910.3 480 899C640 887.7 800 886.3 960 896.8C1120 907.3 1280 929.7 1440 933.5C1600 937.3 1760 922.7 1840 915.3L1920 908L1920 1081L1840 1081C1760 1081 1600 1081 1440 1081C1280 1081 1120 1081 960 1081C800 1081 640 1081 480 1081C320 1081 160 1081 80 1081L0 1081Z" fill="#2a574f"></path><path d="M0 959L80 961C160 963 320 967 480 969.3C640 971.7 800 972.3 960 979.2C1120 986 1280 999 1440 1006.7C1600 1014.3 1760 1016.7 1840 1017.8L1920 1019L1920 1081L1840 1081C1760 1081 1600 1081 1440 1081C1280 1081 1120 1081 960 1081C800 1081 640 1081 480 1081C320 1081 160 1081 80 1081L0 1081Z" fill="#16423c"></path></svg>