<?xml version="1.0" standalone="no"?><svg xmlns="http://www.w3.org/2000/svg" viewBox="0 0 1440 320"><path fill="#0099ff" fill-opacity="1" d="M0,32L20,64C40,96,80,160,120,208C160,256,200,288,240,293.3C280,299,320,277,360,240C400,203,440,149,480,128C520,107,560,117,600,133.3C640,149,680,171,720,192C760,213,800,235,840,250.7C880,267,920,277,960,240C1000,203,1040,117,1080,90.7C1120,64,1160,96,1200,101.3C1240,107,1280,85,1320,106.7C1360,128,1400,192,1420,224L1440,256L1440,320L1420,320C1400,320,1360,320,1320,320C1280,320,1240,320,1200,320C1160,320,1120,320,1080,320C1040,320,1000,320,960,320C920,320,880,320,840,320C800,320,760,320,720,320C680,320,640,320,600,320C560,320,520,320,480,320C440,320,400,320,360,320C320,320,280,320,240,320C200,320,160,320,120,320C80,320,40,320,20,320L0,320Z"></path></svg>